<svg width="500" height="500" viewBox="0 0 500 500" fill="none" xmlns="http://www.w3.org/2000/svg">
<g clip-path="url(#clip0_2_136)">
<path d="M306.563 180.594L256.516 227.156L210.078 133.484L234.109 79.6094C240.359 68.6719 250.109 68.7969 256.203 79.6094L306.563 180.594Z" fill="#1FBCFD"/>
<path d="M210.078 133.484L256.516 227.156L69.4844 401.141L210.078 133.484Z" fill="#095A9E"/>
<path d="M361.297 109.422C370.234 100.828 379.484 103.766 381.844 115.937L430.531 398.828L269.156 495.703C263.531 498.828 248.531 500.172 248.531 500.172C248.531 500.172 234.875 498.547 229.672 495.484L69.4844 401.141L361.297 109.422Z" fill="#42D0FD"/>
<path d="M210.078 133.484L69.5 401.141L132.109 9.96878C134.422 -2.21872 141.359 -3.3906 147.547 7.3594L210.078 133.484Z" fill="#1FBCFD"/>
</g>
<defs>
<clipPath id="clip0_2_136">
<rect width="500" height="500" fill="white"/>
</clipPath>
</defs>
</svg>
