<svg width="500" height="500" viewBox="0 0 500 500" fill="none" xmlns="http://www.w3.org/2000/svg">
<path d="M454.967 305.482H227.572C225.756 305.48 224.015 304.757 222.731 303.473C221.447 302.189 220.725 300.448 220.723 298.632V221.921C220.725 220.105 221.447 218.364 222.731 217.08C224.015 215.796 225.756 215.074 227.572 215.072H454.967C456.782 215.074 458.523 215.796 459.807 217.08C461.091 218.364 461.814 220.105 461.816 221.921V298.632C461.814 300.448 461.091 302.189 459.807 303.473C458.523 304.757 456.782 305.48 454.967 305.482Z" fill="#F1F1F1"/>
<path d="M316.612 235.62H256.339V242.469H316.612V235.62Z" fill="#095A9E"/>
<path d="M396.063 243.839C398.333 243.839 400.173 241.999 400.173 239.729C400.173 237.46 398.333 235.62 396.063 235.62C393.794 235.62 391.954 237.46 391.954 239.729C391.954 241.999 393.794 243.839 396.063 243.839Z" fill="#095A9E"/>
<path d="M409.762 243.839C412.031 243.839 413.871 241.999 413.871 239.729C413.871 237.46 412.031 235.62 409.762 235.62C407.492 235.62 405.652 237.46 405.652 239.729C405.652 241.999 407.492 243.839 409.762 243.839Z" fill="#095A9E"/>
<path d="M423.46 243.839C425.73 243.839 427.57 241.999 427.57 239.729C427.57 237.46 425.73 235.62 423.46 235.62C421.19 235.62 419.351 237.46 419.351 239.729C419.351 241.999 421.19 243.839 423.46 243.839Z" fill="#095A9E"/>
<path d="M454.967 402.741H227.572C225.756 402.739 224.015 402.017 222.731 400.733C221.447 399.449 220.725 397.708 220.723 395.892V319.18C220.725 317.364 221.447 315.624 222.731 314.339C224.015 313.055 225.756 312.333 227.572 312.331H454.967C456.782 312.333 458.523 313.055 459.807 314.339C461.091 315.623 461.814 317.364 461.816 319.18V395.892C461.814 397.708 461.091 399.449 459.807 400.733C458.523 402.017 456.782 402.739 454.967 402.741Z" fill="#F1F1F1"/>
<path d="M316.612 332.878H256.339V339.728H316.612V332.878Z" fill="#095A9E"/>
<path d="M396.063 341.098C398.333 341.098 400.173 339.258 400.173 336.988C400.173 334.718 398.333 332.878 396.063 332.878C393.794 332.878 391.954 334.718 391.954 336.988C391.954 339.258 393.794 341.098 396.063 341.098Z" fill="#095A9E"/>
<path d="M409.762 341.098C412.031 341.098 413.871 339.258 413.871 336.988C413.871 334.718 412.031 332.878 409.762 332.878C407.492 332.878 405.652 334.718 405.652 336.988C405.652 339.258 407.492 341.098 409.762 341.098Z" fill="#095A9E"/>
<path d="M423.46 341.098C425.73 341.098 427.57 339.258 427.57 336.988C427.57 334.718 425.73 332.878 423.46 332.878C421.19 332.878 419.351 334.718 419.351 336.988C419.351 339.258 421.19 341.098 423.46 341.098Z" fill="#095A9E"/>
<path d="M454.967 500H227.572C225.756 499.998 224.015 499.275 222.731 497.991C221.447 496.707 220.725 494.966 220.723 493.15V416.439C220.725 414.623 221.447 412.882 222.731 411.598C224.015 410.314 225.756 409.592 227.572 409.59H454.967C456.782 409.592 458.523 410.314 459.807 411.598C461.091 412.882 461.814 414.623 461.816 416.439V493.15C461.814 494.966 461.091 496.707 459.807 497.991C458.523 499.275 456.782 499.998 454.967 500Z" fill="#F1F1F1"/>
<path d="M316.612 430.138H256.339V436.987H316.612V430.138Z" fill="#095A9E"/>
<path d="M396.063 438.357C398.333 438.357 400.173 436.517 400.173 434.247C400.173 431.978 398.333 430.138 396.063 430.138C393.794 430.138 391.954 431.978 391.954 434.247C391.954 436.517 393.794 438.357 396.063 438.357Z" fill="#095A9E"/>
<path d="M409.762 438.357C412.031 438.357 413.871 436.517 413.871 434.247C413.871 431.978 412.031 430.138 409.762 430.138C407.492 430.138 405.652 431.978 405.652 434.247C405.652 436.517 407.492 438.357 409.762 438.357Z" fill="#095A9E"/>
<path d="M423.46 438.357C425.73 438.357 427.57 436.517 427.57 434.247C427.57 431.978 425.73 430.138 423.46 430.138C421.19 430.138 419.351 431.978 419.351 434.247C419.351 436.517 421.19 438.357 423.46 438.357Z" fill="#095A9E"/>
<path d="M369.241 140.164L368.99 139.978L368.984 139.973C368.659 139.732 368.291 139.558 367.899 139.459C367.507 139.361 367.1 139.341 366.7 139.4C366.3 139.459 365.916 139.596 365.57 139.803C365.223 140.011 364.92 140.285 364.68 140.609L313.496 209.523H307.865V208.2C307.865 207.874 307.735 207.561 307.504 207.33C307.274 207.099 306.961 206.969 306.634 206.969H303.274C302.948 206.969 302.635 207.099 302.404 207.33C302.174 207.561 302.044 207.874 302.044 208.2V209.523H300.099V208.2C300.099 207.874 299.97 207.561 299.739 207.33C299.508 207.099 299.195 206.969 298.869 206.969H295.509C295.183 206.969 294.87 207.099 294.639 207.33C294.408 207.561 294.278 207.874 294.278 208.2V209.523H292.34V208.2C292.34 207.874 292.21 207.561 291.98 207.33C291.749 207.099 291.436 206.969 291.109 206.969H287.75C287.423 206.969 287.11 207.099 286.88 207.33C286.649 207.561 286.519 207.874 286.519 208.2V209.523H284.575V208.2C284.575 207.874 284.445 207.561 284.214 207.33C283.983 207.099 283.67 206.969 283.344 206.969H279.984C279.658 206.969 279.345 207.099 279.114 207.33C278.883 207.561 278.754 207.874 278.754 208.2V209.523H276.815V208.2C276.815 207.874 276.686 207.561 276.455 207.33C276.224 207.099 275.911 206.969 275.585 206.969H272.225C272.063 206.969 271.903 207.001 271.754 207.063C271.605 207.125 271.469 207.215 271.355 207.33C271.24 207.444 271.15 207.58 271.088 207.729C271.026 207.878 270.994 208.038 270.994 208.2V209.523H269.05V208.2C269.05 207.874 268.92 207.561 268.689 207.33C268.459 207.099 268.145 206.969 267.819 206.969H264.459C264.133 206.969 263.82 207.099 263.589 207.33C263.358 207.561 263.229 207.874 263.229 208.2V209.523H261.284V208.2C261.284 207.874 261.155 207.561 260.924 207.33C260.693 207.099 260.38 206.969 260.054 206.969H256.694C256.368 206.969 256.055 207.099 255.824 207.33C255.593 207.561 255.463 207.874 255.463 208.2V209.523H253.525V208.2C253.525 207.874 253.395 207.561 253.165 207.33C252.934 207.099 252.621 206.969 252.294 206.969H248.935C248.608 206.969 248.295 207.099 248.064 207.33C247.834 207.561 247.704 207.874 247.704 208.2V209.523H245.759V208.2C245.759 207.874 245.63 207.561 245.399 207.33C245.168 207.099 244.855 206.969 244.529 206.969H241.169C240.843 206.969 240.53 207.099 240.299 207.33C240.068 207.561 239.938 207.874 239.938 208.2V209.523H238V208.2C238 207.874 237.871 207.561 237.64 207.33C237.409 207.099 237.096 206.969 236.77 206.969H233.41C233.083 206.969 232.77 207.099 232.54 207.33C232.309 207.561 232.179 207.874 232.179 208.2V209.523H229.743C229.338 209.523 228.938 209.602 228.565 209.757C228.192 209.912 227.853 210.138 227.567 210.424C227.281 210.71 227.055 211.049 226.9 211.422C226.745 211.795 226.666 212.196 226.666 212.6V215.535C226.666 215.939 226.745 216.339 226.9 216.712C227.055 217.085 227.281 217.425 227.567 217.71C227.853 217.996 228.192 218.223 228.565 218.377C228.938 218.532 229.338 218.611 229.743 218.611H312.985C314.039 218.611 315.061 218.248 315.879 217.582C316.697 216.917 317.26 215.99 317.474 214.957L317.506 214.981L369.872 144.474L369.877 144.468C370.364 143.813 370.57 142.991 370.451 142.184C370.331 141.377 369.896 140.65 369.241 140.164Z" fill="#3F3D56"/>
<path d="M45.7667 473.868L56.1065 479.16L81.436 441.796L66.1762 433.986L45.7667 473.868Z" fill="#FFB7B7"/>
<path d="M44.8566 469.142L65.2195 479.563L65.2204 479.563C68.6618 481.325 71.2625 484.381 72.4506 488.06C73.6387 491.739 73.3167 495.739 71.5556 499.181L71.3398 499.603L38 482.541L44.8566 469.142Z" fill="#2F2E41"/>
<path d="M165.186 488.344H176.801L182.327 443.542H165.184L165.186 488.344Z" fill="#FFB7B7"/>
<path d="M162.223 484.552L185.097 484.551H185.098C188.964 484.551 192.672 486.087 195.406 488.821C198.14 491.554 199.675 495.262 199.676 499.128V499.602L162.224 499.603L162.223 484.552Z" fill="#2F2E41"/>
<path d="M110.855 122.912C110.855 122.912 103.077 116.953 103.077 131.509L101.849 179.61L115.563 225.05L123.546 210.312L120.271 178.381L110.855 122.912Z" fill="#2F2E41"/>
<path d="M194.057 254.476C194.057 254.476 203.077 298.401 191.652 334.448L185.338 473.046L162.189 471.242L154.071 368.421L146.254 317.311L130.019 363.912L76.5043 462.524L51.8513 443.282C51.8513 443.282 79.1708 368.739 99.3535 353.088L109.476 237.8L194.057 254.476Z" fill="#2F2E41"/>
<path d="M189.778 50.4499C196.77 37.6584 192.069 21.6203 179.277 14.6278C166.486 7.63536 150.448 12.3365 143.455 25.128C136.463 37.9195 141.164 53.9576 153.956 60.95C166.747 67.9425 182.785 63.2414 189.778 50.4499Z" fill="#FFB7B7"/>
<path d="M164.749 43.3875C167.913 43.7992 170.3 40.5617 171.407 37.569C172.514 34.5764 173.357 31.0923 176.108 29.4757C179.867 27.2671 184.676 29.9235 188.974 29.1948C193.827 28.3719 196.983 23.2278 197.231 18.3109C197.478 13.394 195.521 8.66502 193.601 4.1317L192.931 9.76559C193.021 7.85612 192.619 5.9556 191.764 4.2458C190.909 2.53601 189.63 1.07413 188.049 0L188.913 8.26685C188.729 7.12631 188.322 6.03332 187.714 5.05058C187.107 4.06784 186.312 3.2147 185.374 2.54014C184.436 1.86558 183.374 1.38287 182.249 1.11971C181.124 0.856561 179.959 0.818143 178.819 1.00667L178.955 5.93237C173.349 5.26574 167.693 4.59817 162.071 5.10604C156.448 5.61391 150.786 7.39292 146.524 11.096C140.15 16.6351 137.821 25.756 138.603 34.1648C139.385 42.5736 142.856 50.473 146.474 58.104C147.384 60.024 148.643 62.1905 150.753 62.4351C152.65 62.6548 154.385 61.0695 154.975 59.2537C155.429 57.3906 155.411 55.4436 154.923 53.589C154.39 50.7547 153.718 47.8577 154.219 45.0175C154.721 42.1774 156.764 39.3709 159.627 39.0228C162.49 38.6747 165.419 41.9473 164.043 44.4816L164.749 43.3875Z" fill="#2F2E41"/>
<path d="M195.691 266.223L107.581 260.538L114.213 233.063L194.743 251.065L195.691 266.223Z" fill="#CBCBCB"/>
<path d="M141.353 73.787L146.88 66.1143C146.88 66.1143 153.057 68.2135 169.6 76.4479L170.768 83.6366L199.484 260.255L147.289 258.003L133.075 257.701L128.424 247.274L122.688 257.48L108.808 257.185L94.685 248.997L108.604 206.423L113.107 167.533L106.147 130.894C106.147 130.894 97.3901 97.2496 131.119 79.1088L141.353 73.787Z" fill="#2F2E41"/>
<path d="M258.996 207.488C257.718 207.813 256.384 207.854 255.089 207.607C253.793 207.361 252.567 206.833 251.498 206.062C250.428 205.29 249.541 204.294 248.898 203.142C248.255 201.99 247.873 200.712 247.777 199.397L216.811 191.102L229.268 180.042L256.764 189.614C258.985 189.6 261.133 190.402 262.802 191.866C264.471 193.33 265.545 195.356 265.82 197.56C266.095 199.763 265.552 201.991 264.295 203.82C263.037 205.65 261.152 206.955 258.996 207.488Z" fill="#FFB7B7"/>
<path d="M245.127 202.806C244.476 203.161 243.757 203.374 243.018 203.433C242.279 203.491 241.536 203.394 240.837 203.146L189.897 183.812C177.469 179.407 167.065 170.638 160.619 159.136L139.376 121.241C137.885 119.576 136.736 117.633 135.996 115.523C135.256 113.414 134.939 111.179 135.064 108.947C135.189 106.715 135.752 104.529 136.722 102.515C137.693 100.501 139.051 98.6984 140.718 97.2098C142.386 95.7212 144.331 94.576 146.442 93.8399C148.553 93.1037 150.788 92.7911 153.02 92.9198C155.252 93.0485 157.436 93.6161 159.449 94.59C161.461 95.5639 163.261 96.925 164.747 98.5955L201.515 156.873L247.788 184.001C248.694 184.596 249.397 185.456 249.8 186.463C250.202 187.47 250.286 188.577 250.039 189.633L247.738 199.384C247.491 200.429 246.931 201.375 246.133 202.094C245.827 202.37 245.489 202.609 245.127 202.806Z" fill="#2F2E41"/>
</svg>
