<svg width="500" height="500" viewBox="0 0 500 500" fill="none" xmlns="http://www.w3.org/2000/svg">
<path d="M252.56 183.403C291.939 183.403 323.861 151.481 323.861 112.103C323.861 72.7242 291.939 40.8018 252.56 40.8018C213.182 40.8018 181.259 72.7242 181.259 112.103C181.259 151.481 213.182 183.403 252.56 183.403Z" fill="#FEB8B8"/>
<path d="M319.156 50.5896C308.496 33.2793 291.81 20.524 272.309 14.7791L263.555 21.1667V12.8725C258.872 12.1557 254.132 11.8796 249.397 12.0478L241.845 18.8808V12.6155C230.664 14.0049 219.892 17.696 210.208 23.4561C200.524 29.2162 192.139 36.9202 185.581 46.0824C169.181 69.7252 166.412 102.617 182.543 126.45C186.971 112.842 192.345 100.073 196.774 86.4661C200.254 86.9405 203.782 86.9577 207.266 86.517L212.653 73.9465L214.159 85.985C230.857 84.5307 255.624 81.3362 271.454 78.4097L269.914 69.1739L279.124 76.8483C283.973 75.7321 286.853 74.7191 286.615 73.9452C298.389 92.9254 312.797 105.048 324.569 124.028C329.04 97.2649 334.187 75.0117 319.156 50.5896Z" fill="#2F2E41"/>
<path d="M405.908 295.455C403.456 280.704 400.927 265.67 394.072 252.382C389.566 243.679 382.414 235.384 372.773 233.663C370.873 233.494 369.007 233.062 367.227 232.379C364.402 231.019 326.438 209.347 320.404 205.572C315.223 202.332 307.045 196.332 302.921 196.332C298.773 196.241 282.865 199.943 220.776 195.09C220.776 195.09 203.719 201.813 190.521 209.965C190.321 209.833 126.078 244.332 123.665 244.241C119.094 244.048 114.846 246.975 112.225 250.66C109.606 254.345 108.377 258.908 107.09 263.319C121.122 294.567 133.96 325.855 147.993 357.103C148.65 358.28 148.999 359.604 149.008 360.952C148.726 362.351 148.129 363.667 147.262 364.801C140.381 375.855 140.599 389.759 141.351 402.752C142.104 415.744 143.034 429.468 137.227 441.114C135.648 444.311 133.594 447.237 132.092 450.435C128.575 457.676 127.303 480.836 129.358 488.616L386.771 495.991C381.236 480.777 405.908 295.455 405.908 295.455Z" fill="#095A9E"/>
<path d="M84.8395 358.489C84.3259 362.205 84.2742 365.969 84.6856 369.697L88.3749 422.682C88.7213 427.676 89.0622 432.657 89.531 437.639C90.4162 447.306 91.7386 456.897 93.3798 466.473C93.4169 467.833 93.9919 469.123 94.9786 470.059C95.9654 470.995 97.2832 471.502 98.643 471.467C114.884 474.904 131.663 474.766 148.238 473.83C173.53 472.418 238.237 469.748 242.19 464.612C246.144 459.477 243.84 451.17 238.685 447.018C233.53 442.865 148.14 432.741 148.14 432.741C148.975 426.129 151.492 419.902 153.879 413.625C158.168 402.491 162.173 390.991 162.25 379.064C162.327 367.137 157.834 354.596 148.063 347.763C140.026 342.154 129.678 341.113 119.884 341.344C112.759 341.549 100.446 339.841 93.9378 342.628C88.7873 344.896 85.8017 353.446 84.8395 358.489Z" fill="#FBBEBE"/>
<path d="M106.348 264.27C105.097 265.579 104.127 267.13 103.498 268.828C93.1205 292.216 86.9909 317.265 85.3962 342.802C85.4242 344.047 85.1372 345.28 84.5619 346.384C83.9945 347.119 83.3629 347.802 82.6746 348.425C82.0745 349.137 81.6203 349.959 81.3382 350.846C81.056 351.733 80.9513 352.667 81.03 353.595C81.1087 354.522 81.3693 355.425 81.7969 356.251C82.2245 357.078 82.8107 357.812 83.5221 358.413C83.6388 358.511 83.7586 358.605 83.8814 358.696C85.9996 354.71 91.0704 353.407 95.5777 353.061C117.159 351.353 138.239 361.393 159.885 360.636C158.358 355.359 156.161 350.288 154.916 344.948C149.408 321.235 163.145 295.417 154.723 272.577C153.041 268.007 150.23 263.513 145.801 261.511C143.967 260.771 142.048 260.263 140.088 259.999C134.619 259.01 123.731 254.786 118.442 256.481C116.491 257.111 115.721 258.946 114.103 260.055C111.645 261.625 108.385 262.202 106.348 264.27Z" fill="#095A9E"/>
<path d="M406.062 342.628C399.554 339.842 387.241 341.549 380.116 341.344C370.322 341.113 359.974 342.154 351.937 347.763C342.166 354.596 337.673 367.137 337.75 379.064C337.827 390.991 341.832 402.491 346.121 413.625C348.508 419.902 351.025 426.129 351.86 432.741C351.86 432.741 266.469 442.865 261.315 447.018C256.16 451.17 253.856 459.477 257.81 464.612C261.763 469.748 385.116 474.904 401.357 471.467C402.717 471.502 404.035 470.995 405.021 470.059C406.008 469.123 406.583 467.833 406.62 466.473C408.261 456.897 409.584 447.306 410.469 437.639C410.938 432.657 411.279 427.676 411.625 422.682L415.314 369.697C415.726 365.969 415.674 362.205 415.16 358.489C414.198 353.446 411.213 344.896 406.062 342.628Z" fill="#FBBEBE"/>
<path d="M385.897 260.055C384.279 258.946 383.509 257.111 381.558 256.481C376.27 254.786 365.382 259.01 359.912 259.999C357.952 260.263 356.033 260.771 354.199 261.511C349.77 263.513 346.959 268.007 345.277 272.577C336.855 295.417 350.592 321.235 345.084 344.948C343.839 350.288 341.643 355.359 340.115 360.636C361.761 361.393 382.841 351.353 404.422 353.06C408.93 353.407 414 354.71 416.119 358.696C416.241 358.606 416.361 358.511 416.478 358.412C417.189 357.812 417.776 357.078 418.203 356.251C418.631 355.425 418.891 354.522 418.97 353.594C419.049 352.667 418.944 351.733 418.662 350.846C418.38 349.959 417.926 349.137 417.325 348.425C416.637 347.802 416.006 347.119 415.438 346.384C414.863 345.279 414.576 344.047 414.604 342.802C413.009 317.265 406.88 292.216 396.502 268.828C395.873 267.13 394.903 265.579 393.652 264.27C391.615 262.202 388.355 261.625 385.897 260.055Z" fill="#095A9E"/>
<path d="M231.443 473.997C242.071 473.997 250.687 465.381 250.687 454.753C250.687 444.125 242.071 435.509 231.443 435.509C220.815 435.509 212.199 444.125 212.199 454.753C212.199 465.381 220.815 473.997 231.443 473.997Z" fill="#FBBEBE"/>
<path d="M274.055 473.997C284.683 473.997 293.299 465.381 293.299 454.753C293.299 444.125 284.683 435.509 274.055 435.509C263.427 435.509 254.811 444.125 254.811 454.753C254.811 465.381 263.427 473.997 274.055 473.997Z" fill="#FBBEBE"/>
<path d="M392.844 498.117H128.459C125.372 498.114 122.413 496.886 120.23 494.703C118.048 492.521 116.82 489.562 116.816 486.475V326.08C116.82 322.993 118.048 320.034 120.23 317.851C122.413 315.669 125.372 314.441 128.459 314.438H392.844C395.931 314.441 398.89 315.669 401.073 317.851C403.256 320.034 404.484 322.993 404.487 326.08V486.475C404.484 489.562 403.256 492.521 401.073 494.703C398.89 496.886 395.931 498.114 392.844 498.117Z" fill="#3F3D56"/>
<path d="M260.01 413.981C264.265 413.981 267.714 410.532 267.714 406.277C267.714 402.023 264.265 398.574 260.01 398.574C255.756 398.574 252.307 402.023 252.307 406.277C252.307 410.532 255.756 413.981 260.01 413.981Z" fill="white"/>
<path d="M500 465.901H0V493.235H29.5745V499.589H470.437V493.235H500V465.901Z" fill="#F1F1F1"/>
<path d="M186.994 138.677C175.538 138.677 166.25 128.636 166.25 116.248V105.034C166.25 92.6463 175.538 82.6045 186.994 82.6045L186.994 138.677Z" fill="#095A9E"/>
<path d="M319.397 82.6045C330.854 82.6045 340.141 92.6464 340.141 105.034V116.248C340.141 128.636 330.854 138.677 319.397 138.677V82.6045Z" fill="#095A9E"/>
<path d="M330.267 106.795H326.976C326.976 61.6635 293.017 24.9459 251.276 24.9459C209.535 24.9459 175.576 61.6635 175.576 106.795H172.284C172.284 59.7011 207.72 21.3872 251.276 21.3872C294.832 21.3872 330.267 59.7012 330.267 106.795Z" fill="#095A9E"/>
</svg>
