<svg width="500" height="500" viewBox="0 0 500 500" fill="none" xmlns="http://www.w3.org/2000/svg">
<g clip-path="url(#clip0_20_134)">
<path d="M462.202 389.762L484.632 393.267C492.225 384.074 497.459 373.167 499.879 361.492C483.478 374.918 458.536 367.783 438.648 375.113C432.462 377.447 426.881 381.142 422.318 385.926C417.756 390.71 414.328 396.459 412.289 402.748L401.327 414.541C411.249 418.47 421.906 420.2 432.562 419.614C443.218 419.027 453.62 416.137 463.052 411.143C468.315 408.289 473.198 404.784 477.585 400.71C469.737 395.768 462.202 389.762 462.202 389.762Z" fill="#F2F2F2"/>
<path d="M454.239 353.888L475.878 347.022C478.574 335.408 478.394 323.311 475.354 311.782C466.662 331.114 441.156 335.852 426.624 351.282C422.129 356.129 418.782 361.926 416.831 368.242C414.881 374.559 414.376 381.233 415.356 387.771L410.804 403.216C421.438 402.307 431.747 399.103 441.023 393.826C450.299 388.548 458.321 381.322 464.535 372.646C467.973 367.745 470.781 362.429 472.89 356.826C463.662 355.903 454.239 353.888 454.239 353.888Z" fill="#F2F2F2"/>
<path d="M500 421.686C500 421.802 499.978 421.916 499.934 422.023C499.889 422.13 499.825 422.227 499.743 422.309C499.661 422.391 499.564 422.456 499.457 422.5C499.35 422.544 499.235 422.567 499.119 422.566H0.880609C0.647058 422.566 0.423069 422.474 0.257923 422.308C0.0927768 422.143 0 421.919 0 421.686C0 421.452 0.0927768 421.228 0.257923 421.063C0.423069 420.898 0.647058 420.805 0.880609 420.805H499.119C499.235 420.805 499.35 420.827 499.457 420.872C499.564 420.916 499.661 420.98 499.743 421.062C499.825 421.144 499.889 421.241 499.934 421.348C499.978 421.455 500 421.57 500 421.686Z" fill="#CCCCCC"/>
<path d="M206.46 384.144C294.329 384.144 365.561 312.911 365.561 225.042C365.561 137.173 294.329 65.9409 206.46 65.9409C118.591 65.9409 47.3588 137.173 47.3588 225.042C47.3588 312.911 118.591 384.144 206.46 384.144Z" fill="#E6E6E6"/>
<path d="M343.361 225.042C343.377 246.404 338.387 267.472 328.791 286.557C319.196 305.642 305.261 322.213 288.105 334.941C286.958 335.799 285.789 336.635 284.612 337.449C261.671 353.396 234.4 361.943 206.46 361.943C178.52 361.943 151.25 353.396 128.308 337.449C127.131 336.635 125.962 335.799 124.815 334.941C107.671 322.202 93.7451 305.629 84.1505 286.546C74.556 267.464 69.559 246.401 69.559 225.042C69.559 203.683 74.556 182.621 84.1505 163.538C93.7451 144.456 107.671 127.883 124.815 115.144C125.962 114.286 127.131 113.449 128.308 112.635C151.25 96.6883 178.52 88.1411 206.46 88.1411C234.4 88.1411 261.671 96.6883 284.612 112.635C285.789 113.449 286.958 114.286 288.105 115.144C305.261 127.872 319.196 144.442 328.791 163.527C338.387 182.612 343.377 203.681 343.361 225.042Z" fill="white"/>
<path d="M206.46 350.104C275.529 350.104 331.521 294.112 331.521 225.042C331.521 155.973 275.529 99.9814 206.46 99.9814C137.391 99.9814 81.399 155.973 81.399 225.042C81.399 294.112 137.391 350.104 206.46 350.104Z" fill="#1FBCFD"/>
<path opacity="0.2" d="M206.786 100.331C204.89 100.331 203.006 100.381 201.131 100.464C232.74 103.242 262.11 117.93 283.293 141.555C304.476 165.179 315.886 195.972 315.213 227.695C314.54 259.418 301.833 289.699 279.667 312.403C257.501 335.107 227.533 348.537 195.835 349.97C199.445 350.284 203.096 350.453 206.786 350.453C239.955 350.453 271.764 337.277 295.218 313.824C318.671 290.37 331.847 258.56 331.847 225.392C331.847 192.224 318.671 160.414 295.218 136.961C271.764 113.507 239.955 100.331 206.786 100.331Z" fill="black"/>
<path d="M206.83 91.1011C205.751 91.103 204.717 91.5324 203.954 92.2953C203.191 93.0581 202.762 94.0922 202.76 95.1711V112.931C202.76 114.011 203.189 115.046 203.952 115.809C204.715 116.572 205.751 117.001 206.83 117.001C207.909 117.001 208.945 116.572 209.708 115.809C210.471 115.046 210.9 114.011 210.9 112.931V95.1711C210.898 94.0922 210.469 93.0581 209.706 92.2953C208.943 91.5324 207.909 91.103 206.83 91.1011Z" fill="white"/>
<path d="M288.105 115.144C286.958 114.286 285.789 113.45 284.612 112.636C283.906 112.59 283.2 112.728 282.564 113.039C281.929 113.349 281.384 113.819 280.986 114.404L270.989 129.079C270.381 129.971 270.153 131.067 270.354 132.128C270.555 133.188 271.17 134.125 272.062 134.732C272.954 135.34 274.05 135.568 275.111 135.367C276.171 135.165 277.108 134.551 277.715 133.659L287.713 118.985C288.093 118.428 288.328 117.785 288.397 117.114C288.465 116.444 288.365 115.766 288.105 115.144Z" fill="white"/>
<path d="M333.527 182.055C333.326 181.561 333.029 181.11 332.654 180.73C332.279 180.35 331.832 180.048 331.34 179.84C330.848 179.632 330.32 179.524 329.786 179.521C329.252 179.517 328.723 179.619 328.228 179.82L311.77 186.503C310.771 186.91 309.975 187.697 309.556 188.691C309.137 189.684 309.129 190.804 309.535 191.803C309.941 192.803 310.727 193.6 311.721 194.02C312.715 194.44 313.834 194.449 314.834 194.043L331.292 187.361C332.29 186.952 333.086 186.164 333.505 185.17C333.924 184.175 333.932 183.055 333.527 182.055Z" fill="white"/>
<path d="M141.932 129.079L131.934 114.404C131.536 113.819 130.992 113.349 130.356 113.039C129.72 112.728 129.014 112.59 128.308 112.636C127.131 113.45 125.962 114.286 124.815 115.144C124.555 115.766 124.455 116.444 124.523 117.114C124.592 117.785 124.827 118.428 125.207 118.985L135.205 133.659C135.812 134.551 136.749 135.165 137.809 135.367C138.87 135.568 139.967 135.34 140.859 134.732C141.751 134.125 142.365 133.188 142.566 132.128C142.767 131.067 142.539 129.971 141.932 129.079Z" fill="white"/>
<path d="M101.15 186.503L84.692 179.82C83.6921 179.414 82.5719 179.422 81.5777 179.842C80.5835 180.262 79.7968 181.059 79.3906 182.059C78.9844 183.059 78.9919 184.179 79.4116 185.174C79.8313 186.168 80.6287 186.955 81.6284 187.361L98.0861 194.043C99.0859 194.448 100.206 194.44 101.199 194.02C102.193 193.6 102.979 192.803 103.385 191.803C103.791 190.804 103.784 189.684 103.364 188.69C102.945 187.697 102.149 186.91 101.15 186.503Z" fill="white"/>
<path d="M206.83 333.083C205.751 333.085 204.717 333.515 203.954 334.278C203.191 335.041 202.762 336.075 202.76 337.154V354.914C202.76 355.993 203.189 357.028 203.952 357.792C204.715 358.555 205.751 358.984 206.83 358.984C207.909 358.984 208.945 358.555 209.708 357.792C210.471 357.028 210.9 355.993 210.9 354.914V337.154C210.898 336.075 210.469 335.041 209.706 334.278C208.943 333.515 207.909 333.085 206.83 333.083Z" fill="white"/>
<path d="M287.713 331.1L277.715 316.426C277.414 315.984 277.03 315.606 276.583 315.313C276.136 315.02 275.636 314.818 275.111 314.718C274.586 314.619 274.046 314.623 273.523 314.732C273 314.841 272.503 315.052 272.062 315.353C271.62 315.654 271.242 316.038 270.949 316.485C270.656 316.932 270.454 317.432 270.354 317.957C270.254 318.482 270.259 319.022 270.368 319.545C270.477 320.068 270.688 320.565 270.988 321.006L280.986 335.681C281.384 336.265 281.928 336.736 282.564 337.046C283.2 337.356 283.906 337.495 284.612 337.449C285.789 336.635 286.958 335.799 288.105 334.941C288.365 334.319 288.465 333.641 288.397 332.971C288.328 332.3 288.093 331.657 287.713 331.1Z" fill="white"/>
<path d="M331.292 262.723L314.834 256.041C313.834 255.635 312.714 255.643 311.72 256.063C310.726 256.483 309.939 257.28 309.533 258.28C309.126 259.28 309.134 260.4 309.554 261.394C309.973 262.389 310.771 263.175 311.77 263.582L328.228 270.264C329.228 270.669 330.348 270.661 331.341 270.241C332.335 269.821 333.121 269.023 333.527 268.024C333.933 267.025 333.925 265.905 333.506 264.911C333.087 263.917 332.291 263.13 331.292 262.723Z" fill="white"/>
<path d="M140.858 315.353C139.966 314.746 138.87 314.518 137.81 314.719C136.749 314.92 135.812 315.534 135.205 316.426L125.207 331.1C124.827 331.657 124.592 332.3 124.523 332.971C124.455 333.641 124.555 334.319 124.815 334.941C125.962 335.799 127.131 336.635 128.308 337.449C129.014 337.495 129.72 337.357 130.356 337.046C130.992 336.736 131.536 336.266 131.934 335.681L141.932 321.007C142.232 320.565 142.443 320.068 142.552 319.545C142.661 319.022 142.666 318.482 142.566 317.957C142.466 317.432 142.264 316.932 141.971 316.485C141.678 316.038 141.3 315.654 140.858 315.353Z" fill="white"/>
<path d="M103.385 258.276C103.184 257.781 102.887 257.331 102.512 256.951C102.137 256.571 101.69 256.268 101.198 256.061C100.706 255.853 100.178 255.745 99.6442 255.741C99.1102 255.738 98.5807 255.84 98.0861 256.041L81.6284 262.723C80.6294 263.13 79.8328 263.917 79.4137 264.911C78.9946 265.905 78.9873 267.025 79.3933 268.024C79.7993 269.024 80.5855 269.821 81.579 270.241C82.5726 270.661 83.6923 270.669 84.692 270.264L101.15 263.582C102.148 263.173 102.944 262.385 103.363 261.39C103.782 260.396 103.79 259.276 103.385 258.276Z" fill="white"/>
<path d="M212.111 223.023C212.487 225.248 211.965 227.531 210.659 229.371C209.354 231.211 207.372 232.459 205.148 232.84L132.925 245.125C131.823 245.312 130.696 245.281 129.606 245.032C128.516 244.784 127.486 244.323 126.575 243.676C125.663 243.03 124.888 242.21 124.293 241.264C123.699 240.318 123.296 239.264 123.109 238.162C122.921 237.06 122.953 235.933 123.201 234.843C123.45 233.753 123.91 232.723 124.557 231.812C125.203 230.9 126.023 230.125 126.969 229.53C127.915 228.935 128.969 228.533 130.071 228.346L202.294 216.06C204.519 215.685 206.802 216.207 208.642 217.512C210.483 218.817 211.73 220.799 212.111 223.023Z" fill="#3F3D56"/>
<path d="M288.124 303.04C287.086 304.084 285.677 304.673 284.206 304.679C282.734 304.684 281.321 304.106 280.275 303.071L202.528 225.934C201.484 224.897 200.895 223.488 200.89 222.017C200.885 220.546 201.464 219.133 202.5 218.088C203.537 217.044 204.945 216.454 206.416 216.447C207.887 216.441 209.3 217.019 210.346 218.054L288.093 295.191C289.136 296.229 289.726 297.638 289.731 299.109C289.737 300.581 289.159 301.994 288.124 303.04Z" fill="#3F3D56"/>
<path d="M206.46 234.663C211.773 234.663 216.08 230.355 216.08 225.042C216.08 219.729 211.773 215.422 206.46 215.422C201.147 215.422 196.84 219.729 196.84 225.042C196.84 230.355 201.147 234.663 206.46 234.663Z" fill="#CCCCCC"/>
<path d="M140.197 58.2292C125.43 81.445 102.9 96.8521 75.1136 106.974C74.5645 107.385 73.9399 107.684 73.2752 107.854C72.6106 108.024 71.919 108.061 71.24 107.963C70.561 107.866 69.9078 107.636 69.3178 107.286C68.7277 106.936 68.2124 106.473 67.8012 105.924C52.7081 85.7719 56.1161 56.9704 76.0358 41.5717C80.8517 37.8553 86.3579 35.1326 92.2346 33.5616C98.1114 31.9906 104.242 31.6026 110.27 32.4201C116.298 33.2377 122.103 35.2445 127.349 38.324C132.595 41.4036 137.177 45.4945 140.829 50.3594L141.247 50.9168C141.658 51.4658 141.957 52.0905 142.127 52.7551C142.297 53.4198 142.334 54.1113 142.236 54.7903C142.139 55.4694 141.909 56.1225 141.559 56.7126C141.209 57.3026 140.746 57.8179 140.197 58.2292Z" fill="#E6E6E6"/>
<path d="M272.091 50.3594C275.743 45.4945 280.325 41.4035 285.571 38.324C290.817 35.2444 296.623 33.2377 302.65 32.4201C308.678 31.6026 314.809 31.9906 320.685 33.5616C326.562 35.1326 332.068 37.8553 336.884 41.5717C356.804 56.9703 360.212 85.7719 345.119 105.924C344.708 106.473 344.192 106.936 343.602 107.286C343.012 107.636 342.359 107.866 341.68 107.963C341.001 108.061 340.31 108.024 339.645 107.854C338.98 107.684 338.356 107.385 337.807 106.974C312.012 97.098 290.859 80.0083 272.723 58.2292C271.614 57.3986 270.881 56.1617 270.684 54.7903C270.487 53.419 270.843 52.0256 271.673 50.9167L272.091 50.3594Z" fill="#E6E6E6"/>
<path d="M265.618 362.882C264.678 363.41 263.985 364.29 263.692 365.328C263.399 366.367 263.529 367.479 264.054 368.421L287.543 410.396C288.071 411.338 288.95 412.032 289.989 412.325C291.028 412.618 292.14 412.487 293.082 411.96C294.024 411.433 294.718 410.553 295.011 409.514C295.305 408.476 295.174 407.363 294.647 406.421L271.158 364.446C270.629 363.506 269.75 362.813 268.711 362.52C267.673 362.226 266.561 362.357 265.618 362.882Z" fill="#E6E6E6"/>
<path d="M141.762 364.446L118.273 406.421C117.746 407.363 117.615 408.476 117.909 409.514C118.202 410.553 118.896 411.433 119.838 411.96C120.78 412.487 121.892 412.618 122.931 412.325C123.97 412.032 124.849 411.338 125.377 410.396L148.866 368.421C149.127 367.955 149.294 367.441 149.356 366.911C149.419 366.38 149.377 365.842 149.231 365.327C149.086 364.813 148.841 364.332 148.51 363.912C148.179 363.493 147.769 363.142 147.302 362.881C146.836 362.62 146.322 362.453 145.791 362.391C145.26 362.328 144.722 362.371 144.208 362.516C143.694 362.661 143.213 362.907 142.793 363.238C142.374 363.569 142.023 363.98 141.762 364.446Z" fill="#E6E6E6"/>
<path d="M292.301 421.144C299.249 421.144 304.881 415.512 304.881 408.564C304.881 401.616 299.249 395.984 292.301 395.984C285.353 395.984 279.721 401.616 279.721 408.564C279.721 415.512 285.353 421.144 292.301 421.144Z" fill="#E6E6E6"/>
<path d="M301.181 99.2413C308.129 99.2413 313.761 93.609 313.761 86.6612C313.761 79.7134 308.129 74.0811 301.181 74.0811C294.233 74.0811 288.601 79.7134 288.601 86.6612C288.601 93.609 294.233 99.2413 301.181 99.2413Z" fill="#E6E6E6"/>
<path d="M205.72 69.6412C212.668 69.6412 218.3 64.0089 218.3 57.0611C218.3 50.1133 212.668 44.481 205.72 44.481C198.772 44.481 193.14 50.1133 193.14 57.0611C193.14 64.0089 198.772 69.6412 205.72 69.6412Z" fill="#E6E6E6"/>
<path d="M114.699 97.7613C121.647 97.7613 127.279 92.129 127.279 85.1812C127.279 78.2334 121.647 72.6011 114.699 72.6011C107.751 72.6011 102.119 78.2334 102.119 85.1812C102.119 92.129 107.751 97.7613 114.699 97.7613Z" fill="#E6E6E6"/>
<path d="M122.839 421.144C129.787 421.144 135.419 415.512 135.419 408.564C135.419 401.616 129.787 395.984 122.839 395.984C115.892 395.984 110.259 401.616 110.259 408.564C110.259 415.512 115.892 421.144 122.839 421.144Z" fill="#E6E6E6"/>
<path d="M282.433 295.965C282.929 296.742 283.589 297.4 284.367 297.894C285.145 298.387 286.021 298.705 286.935 298.823C287.849 298.941 288.777 298.858 289.655 298.578C290.533 298.299 291.339 297.831 292.016 297.206L311.756 307.783L310.698 296.194L292.114 287.926C290.99 286.858 289.512 286.239 287.962 286.188C286.412 286.136 284.896 286.655 283.703 287.645C282.51 288.636 281.721 290.031 281.487 291.564C281.253 293.097 281.589 294.663 282.433 295.965Z" fill="#FFB7B7"/>
<path d="M296.816 300.01L304.552 289.332L341.818 306.949L388.192 298.248C390.484 297.818 392.843 297.898 395.101 298.482C397.359 299.066 399.461 300.14 401.257 301.628C403.053 303.115 404.5 304.98 405.494 307.09C406.488 309.199 407.006 311.502 407.011 313.834C407.014 318.047 405.346 322.088 402.373 325.073C399.4 328.057 395.364 329.74 391.151 329.752L338.007 329.851L296.816 300.01Z" fill="#3F3D56"/>
<path d="M284.902 484.439L277.075 480.696L287.826 447.982L299.377 453.507L284.902 484.439Z" fill="#FFB7B7"/>
<path d="M337.373 479.165C336.803 479.521 336.234 479.872 335.659 480.223C334.515 480.924 333.36 481.614 332.204 482.292C331.624 482.632 331.037 482.971 330.457 483.304V483.321L330.422 483.327L330.411 483.333L329.525 483.551L328.255 480.194L327.668 478.648L326.841 476.457L325.323 472.45L317.332 451.352L329.755 448.288L330.221 450.191H330.227L330.457 451.133L334.797 468.737L335.682 472.335L335.711 472.445L336.246 474.595L336.706 476.457L337.217 478.539L337.373 479.165Z" fill="#FFB7B7"/>
<path d="M411.483 405.072C410.695 406.337 409.89 407.596 409.08 408.844C407.574 411.166 406.027 413.454 404.44 415.708C404.44 415.713 404.435 415.713 404.429 415.719C403.503 416.577 402.481 417.323 401.382 417.944C401.336 417.979 401.284 418.002 401.238 418.03C400.429 418.478 399.568 418.823 398.674 419.059C398.352 419.14 398.025 419.22 397.703 419.301C396.541 419.577 395.392 419.812 394.248 420.019C392.213 420.382 390.2 420.64 388.2 420.801C388.039 420.819 387.878 420.83 387.717 420.841C379.49 421.445 371.482 420.474 363.123 418.881C358.995 418.099 354.781 417.162 350.418 416.191C348.992 415.869 347.561 415.552 346.112 415.236C346.003 415.213 345.888 415.185 345.773 415.162C343.703 414.707 341.599 414.259 339.443 413.816C336.73 413.259 333.93 412.718 331.021 412.207L331.228 416.306C331.4 419.459 332.056 422.567 333.171 425.521C334.413 429.154 335.396 432.029 333.321 438.013L332.32 440.911C332.839 442.35 333.017 443.889 332.84 445.408C332.664 446.927 332.138 448.385 331.303 449.667L331.102 449.971L339.443 471.075L339.984 472.444H335.712L330.458 472.449H321.553L308.704 446.671L308.089 445.441V445.378L309.417 395.839C309.434 395.403 309.469 394.96 309.526 394.523C309.76 392.537 310.388 390.617 311.372 388.876C312.356 387.135 313.677 385.607 315.258 384.382C316.772 383.198 318.508 382.327 320.362 381.82C322.216 381.313 324.153 381.179 326.06 381.427L330.458 381.996L339.443 383.157L345.773 383.98L345.899 383.997L364.566 386.411L365.906 380.95L366.153 380.858L374.012 377.978L401.192 368.015L401.261 367.992L403.049 367.336L403.262 367.681C403.325 367.785 403.388 367.888 403.446 367.992C405.213 371.16 406.652 374.5 407.74 377.96C409.571 383.613 411.077 389.366 412.253 395.19C412.305 395.443 412.351 395.673 412.391 395.88L412.408 395.943C412.426 396.041 412.437 396.104 412.443 396.121C413.07 398.731 412.633 401.916 411.483 405.072Z" fill="#2F2E41"/>
<path d="M412.63 386.815C412.544 386.448 412.435 386.074 412.32 385.712C411.407 382.968 410.344 380.278 409.135 377.652C407.778 374.662 406.151 371.46 404.214 367.993C403.277 366.315 402.269 364.569 401.19 362.756C400.65 361.848 400.088 360.922 399.505 359.98C399.483 359.936 399.458 359.894 399.431 359.853L399.264 359.577L372.371 363.176L362.356 364.515L361.758 369.506L361.614 370.742C361.609 370.742 361.609 370.742 361.614 370.747L361.212 374.116V374.122L360.677 378.572L360.631 378.566L345.77 376.64L330.455 374.657L322.229 373.593C320.322 373.345 318.385 373.478 316.531 373.985C314.676 374.492 312.941 375.364 311.426 376.548C309.846 377.773 308.525 379.301 307.541 381.042C306.557 382.783 305.929 384.703 305.695 386.689C305.643 387.091 305.609 387.505 305.591 387.914L297.83 406.304C293.186 417.303 290.229 428.939 289.057 440.821L283.366 459.016L284.177 459.091L296.238 460.212L299.423 460.511L306.436 450.272C307.235 449.105 307.994 447.903 308.701 446.673C309.866 444.664 310.901 442.582 311.8 440.441L326.971 404.338C328.144 404.539 329.306 404.731 330.455 404.913C335.773 405.775 340.878 406.479 345.77 407.023C361.678 408.799 375.452 408.937 387.714 407.431C391.158 407.011 394.487 406.46 397.7 405.775C398.879 405.528 400.042 405.262 401.19 404.976C401.46 404.913 401.725 404.85 401.989 404.781C404.365 404.168 406.549 402.969 408.342 401.294C410.135 399.619 411.479 397.521 412.251 395.192C413.173 392.493 413.304 389.587 412.63 386.815Z" fill="#2F2E41"/>
<path d="M287.402 479.097L278.934 475.039L277.606 474.4L275.484 479.609L260.675 482.869C259.943 483.029 259.281 483.42 258.787 483.983C258.292 484.546 257.991 485.253 257.926 486C257.862 486.747 258.039 487.495 258.43 488.134C258.821 488.774 259.406 489.271 260.1 489.555L274.57 495.459L279.164 491.325L278.037 496.873L283.487 499.098L289.46 480.086L287.402 479.097Z" fill="#2F2E41"/>
<path d="M339.443 471.075L339.984 472.443H339.443V471.075Z" fill="#2F2E41"/>
<path d="M336.494 472.736L327.621 475.81L326.228 476.291L328.386 481.485L320.156 494.221C319.749 494.85 319.553 495.593 319.599 496.342C319.644 497.09 319.927 497.804 320.407 498.38C320.886 498.956 321.538 499.363 322.266 499.542C322.994 499.722 323.76 499.663 324.452 499.376L338.889 493.39L339.244 487.221L342.347 491.956L347.785 489.702L338.652 471.99L336.494 472.736Z" fill="#2F2E41"/>
<path d="M410.417 395.145C409.891 395.144 409.372 395.015 408.906 394.77L362.082 370.303L361.541 368.088L360.521 361.079L360.536 361.013L364.989 340.483C364.907 340.307 364.736 340.018 364.544 339.691C362.556 336.323 356.506 326.071 368.052 311.955L388.325 288.32L405.725 287.571L405.923 287.821C410.575 293.661 413.713 300.559 415.057 307.904C416.401 315.248 415.909 322.811 413.626 329.919L411.815 362.64L413.758 369.248C414.894 373.131 414.706 377.282 413.224 381.047L413.669 391.747C413.687 392.185 413.616 392.623 413.46 393.033C413.305 393.444 413.068 393.819 412.765 394.136C412.461 394.453 412.097 394.706 411.694 394.879C411.29 395.052 410.856 395.143 410.417 395.145Z" fill="#3F3D56"/>
<path d="M369.801 422.129C370.595 421.661 371.275 421.024 371.796 420.264C372.316 419.504 372.664 418.639 372.814 417.73C372.964 416.821 372.913 415.89 372.664 415.003C372.416 414.116 371.975 413.294 371.375 412.595L382.632 393.235L371.013 393.89L362.104 412.174C360.997 413.261 360.328 414.716 360.222 416.263C360.116 417.811 360.582 419.344 361.531 420.571C362.48 421.798 363.846 422.634 365.37 422.922C366.894 423.209 368.471 422.927 369.801 422.129Z" fill="#FFB7B7"/>
<path d="M374.344 407.896L363.941 399.794L382.844 363.162L375.761 316.514C375.411 314.208 375.573 311.853 376.235 309.617C376.897 307.381 378.044 305.318 379.593 303.575C381.142 301.831 383.057 300.45 385.199 299.53C387.342 298.609 389.662 298.172 391.993 298.249C396.203 298.392 400.184 300.2 403.063 303.275C405.942 306.35 407.483 310.442 407.349 314.652L405.599 367.768L374.344 407.896Z" fill="#3F3D56"/>
<path d="M377.164 278.499V261.282C377.161 255.163 379.587 249.293 383.911 244.964C388.235 240.634 394.102 238.2 400.221 238.196C406.34 238.192 412.209 240.619 416.539 244.943C420.868 249.267 423.303 255.133 423.307 261.252V261.282C427.373 269.755 424.829 273.784 423.307 278.499C423.305 279.321 422.979 280.108 422.398 280.688C421.817 281.269 421.03 281.596 420.209 281.597H380.264C379.442 281.596 378.655 281.27 378.074 280.689C377.493 280.108 377.166 279.321 377.164 278.499Z" fill="#2F2E41"/>
<path d="M392.671 280.478C402.209 280.478 409.941 272.746 409.941 263.209C409.941 253.671 402.209 245.939 392.671 245.939C383.133 245.939 375.401 253.671 375.401 263.209C375.401 272.746 383.133 280.478 392.671 280.478Z" fill="#FFB7B7"/>
<path d="M410.744 267.736C410.588 267.711 410.431 267.678 410.275 267.653C407.581 267.176 404.887 266.706 402.202 266.22L401.955 260.132L398.701 265.586C391.278 268.049 384.334 266.657 377.801 263.584C375.646 262.561 373.555 261.408 371.54 260.132C372.089 256.765 373.383 253.563 375.329 250.761C377.275 247.959 379.822 245.627 382.785 243.936C383.032 243.796 383.271 243.673 383.518 243.549L383.521 243.549L383.524 243.547L383.526 243.544L383.526 243.541C383.946 243.343 384.375 243.154 384.803 242.981C388.157 241.67 391.814 241.338 395.349 242.024C398.883 242.709 402.151 244.383 404.772 246.853C410.044 251.886 412.417 260.198 410.744 267.736Z" fill="#2F2E41"/>
</g>
<defs>
<clipPath id="clip0_20_134">
<rect width="500" height="467.645" fill="white" transform="translate(0 32)"/>
</clipPath>
</defs>
</svg>
